<svg xmlns="http://www.w3.org/2000/svg" width="387.049" height="324.19" viewBox="0 0 387.049 324.19"><g transform="translate(-4227.127 941.805)"><path d="M4227.127-941.8v324.19h304.549c.58-.59,1.17-1.17,1.75-1.75q40.381-40.38,80.75-80.76V-941.8Zm385.3,25.12c-1.25-1.25-2.5-2.51-3.75-3.76v8.98l3.75,3.75v1.77l-3.75-3.75v9.14l3.75,3.75v195.87q-40.77,40.785-81.56,81.57H4412.687l-3.79-3.8h-9.15l3.8,3.8h-1.77l-3.79-3.8h-8.98l3.8,3.8h-1.89l-3.8-3.8h-9.14l3.8,3.8h-1.77l-3.8-3.8h-8.97l3.8,3.8h-98.87l-3.8-3.8h-9.14l3.8,3.8h-1.77l-3.8-3.8h-8.97l3.8,3.8H4250l-21.12-21.12v-2.29l3.75,3.75v-8.98l-3.75-3.74v-1.77l3.75,3.74V-806.4l-3.75-3.75V-919.835l20.22-20.22h158.81l3.75,3.75h9.15l-3.76-3.75h1.77l3.75,3.75h8.98l-3.75-3.75h1.89l3.75,3.75h9.14l-3.75-3.75h1.77l3.75,3.75h8.97l-3.75-3.75h119.609l3.76,3.75h9.14l-3.76-3.75h1.77l3.76,3.75h8.97l-3.75-3.75h3.1l20.26,20.26Z" fill="#00b3eb"/></g></svg>